PathFileType	4	(X/Y/Z)	/Users/itak/Documents/Research/Walk-IL/dataset/trc/00511_00183.trc
DataRate	CameraRate	NumFrames	NumMarkers	Units	OrigDataRate	OrigDataStartFrame	OrigNumFrames
100.000000	100.000000	4	53	mm	100.000000	144	386
Frame#	Time	RPSI			LPSI			L3			STRN			T10			C7			CLAV			RBAK			LBAK			LSHO			LUPA			LAEL			LAOL			LWTS			LWPS			LFRA			LIFD			LHPS			LHTS			RSHO			RUPA			RAEL			RAOL			RWTS			RWPS			RFRA			RIFD			RHTS			RHPS			RBHD			LFHD			RFHD			LBHD			LHIP			RHIP			RASI			LASI			LKNE			LTHI			LANK			LTIP			LTOE			LMT1			LMT5			LHEE			RKNE			RTHI			RANK			RTIP			RTOE			RMT1			RMT5			RHEE			
		X1	Y1	Z1	X2	Y2	Z2	X3	Y3	Z3	X4	Y4	Z4	X5	Y5	Z5	X6	Y6	Z6	X7	Y7	Z7	X8	Y8	Z8	X9	Y9	Z9	X10	Y10	Z10	X11	Y11	Z11	X12	Y12	Z12	X13	Y13	Z13	X14	Y14	Z14	X15	Y15	Z15	X16	Y16	Z16	X17	Y17	Z17	X18	Y18	Z18	X19	Y19	Z19	X20	Y20	Z20	X21	Y21	Z21	X22	Y22	Z22	X23	Y23	Z23	X24	Y24	Z24	X25	Y25	Z25	X26	Y26	Z26	X27	Y27	Z27	X28	Y28	Z28	X29	Y29	Z29	X30	Y30	Z30	X31	Y31	Z31	X32	Y32	Z32	X33	Y33	Z33	X34	Y34	Z34	X35	Y35	Z35	X36	Y36	Z36	X37	Y37	Z37	X38	Y38	Z38	X39	Y39	Z39	X40	Y40	Z40	X41	Y41	Z41	X42	Y42	Z42	X43	Y43	Z43	X44	Y44	Z44	X45	Y45	Z45	X46	Y46	Z46	X47	Y47	Z47	X48	Y48	Z48	X49	Y49	Z49	X50	Y50	Z50	X51	Y51	Z51	X52	Y52	Z52	X53	Y53	Z53	

145	1.44	-683.6522827148438	922.5911254882812	-178.9472198486328	-614.803466796875	912.5115966796875	-281.40966796875	-622.2809448242188	994.6558837890625	-242.2743530273438	-421.90185546875	1087.900756835938	-80.75856018066406	-603.3283081054688	1099.65673828125	-247.2049255371094	-521.8199462890625	1306.736938476562	-180.4316864013672	-429.5172119140625	1189.705444335938	-87.69175720214844	-638.8853149414062	1204.844604492188	-178.4589996337891	-485.4834289550781	1257.510864257812	-267.1492004394531	-357.8139953613281	1277.64013671875	-241.5354614257812	-343.6958618164062	1158.727905273438	-314.4288635253906	-364.3199157714844	976.9161987304688	-353.54150390625	-458.9275512695312	968.412353515625	-389.7654724121094	-334.4347839355469	879.5502319335938	-190.5854339599609	-343.6719055175781	795.2786865234375	-231.8619384765625	-348.7697143554688	921.5347900390625	-312.8862609863281	-312.5347595214844	784.8428955078125	-85.7891845703125	-313.4018249511719	774.27685546875	-184.8654479980469	-291.3993835449219	828.33740234375	-154.4589080810547	-588.3010864257812	1282.974243164062	-35.94901657104492	-655.7925415039062	1231.278686523438	-23.22773933410645	-771.53564453125	1008.349182128906	-48.00965881347656	-785.1946411132812	984.5256958007812	-109.1850357055664	-642.6250610351562	857.926025390625	52.66903686523438	-725.2402954101562	820.9711303710938	53.15957260131836	-772.0091552734375	960.2051391601562	-29.20876121520996	-623.3665161132812	701.7404174804688	89.77972412109375	-632.6956176757812	771.9102783203125	105.2981185913086	-700.6312866210938	757.4998779296875	86.75422668457031	-558.94970703125	1431.119995117188	-83.97916412353516	-391.8855285644531	1513.26171875	-156.9332885742188	-456.8047180175781	1515.688598632812	-47.40880966186523	-489.4732360839844	1420.095703125	-227.35986328125	-474.916015625	805.7113037109375	-337.7498168945312	-679.4757080078125	818.3501586914062	-17.28486442565918	-558.9105224609375	841.5355224609375	-26.8752555847168	-426.9123229980469	824.4193725585938	-226.7178497314453	-535.3319091796875	382.9980773925781	-331.29248046875	-495.21875	539.0252685546875	-321.5166625976562	-863.6022338867188	209.31689453125	-574.9957885742188	-633.2803344726562	310.0652770996094	-413.9109497070312	-849.0346069335938	36.31319427490234	-487.5489807128906	-883.395751953125	100.6578063964844	-472.8879699707031	-839.2631225585938	102.5047760009766	-569.108154296875	-909.4918823242188	252.8153228759766	-532.2277221679688	-576.2734985351562	433.136962890625	-52.81992721557617	-646.0736083984375	685.2808837890625	-4.992985248565674	-750.8812866210938	85.11515045166016	-237.8406372070312	-593.310546875	296.6828002929688	-92.95160675048828	-588.2098388671875	42.42414855957031	-138.3500213623047	-603.1307373046875	49.52130889892578	-210.6324462890625	-682.4674072265625	52.01689910888672	-154.0534515380859	-760.2373657226562	96.54977416992188	-309.2412719726562	
146	1.45	-673.4656982421875	920.5280151367188	-172.1354522705078	-604.8024291992188	909.2191772460938	-274.5829467773438	-612.6423950195312	992.7562866210938	-233.4366149902344	-410.4880676269531	1085.120849609375	-71.90874481201172	-593.575439453125	1097.9140625	-235.8516998291016	-510.7952270507812	1305.257202148438	-168.5083770751953	-417.7394104003906	1186.855102539062	-78.2894287109375	-628.0726928710938	1202.902221679688	-164.4361419677734	-476.4446411132812	1256.252197265625	-256.2294311523438	-348.0749816894531	1275.309326171875	-232.8504638671875	-336.6811218261719	1157.317260742188	-307.6712341308594	-360.6485595703125	975.78369140625	-352.8247680664062	-456.8888854980469	971.396484375	-385.3663635253906	-327.1919555664062	868.0381469726562	-198.4587554931641	-340.3071899414062	786.8822021484375	-244.2343902587891	-345.0870056152344	917.4519653320312	-316.1275024414062	-300.9388427734375	767.2779541015625	-102.1591186523438	-307.3029174804688	762.7023315429688	-201.2124786376953	-282.9620361328125	814.4140014648438	-168.8865814208984	-575.2943115234375	1280.181762695312	-22.67510795593262	-642.4060668945312	1226.815063476562	-7.628167152404785	-751.7989501953125	999.61181640625	-23.87459373474121	-768.9542846679688	975.1798095703125	-83.76434326171875	-611.4527587890625	855.5737915039062	68.03739929199219	-692.3950805664062	815.8145751953125	74.76210021972656	-749.4039916992188	951.7192993164062	-4.98499059677124	-584.5885009765625	700.7464599609375	106.8222808837891	-594.9652709960938	770.9373168945312	120.7667846679688	-663.5767822265625	754.1712646484375	107.4103698730469	-546.6344604492188	1428.611450195312	-72.57948303222656	-380.4037170410156	1511.465087890625	-146.5585174560547	-444.8123474121094	1513.957153320312	-36.78452301025391	-477.6513061523438	1417.408203125	-216.2436981201172	-463.5789184570312	802.5224609375	-328.5758056640625	-670.9241943359375	816.6643676757812	-10.12284278869629	-549.7308349609375	840.384521484375	-17.90862274169922	-416.7890625	823.1500244140625	-217.3387145996094	-506.5176086425781	378.6456298828125	-312.0794372558594	-474.7574157714844	536.0774536132812	-307.0122985839844	-836.1957397460938	218.7695159912109	-559.8009643554688	-604.1917724609375	309.0301208496094	-395.2119750976562	-827.0335083007812	39.33024597167969	-477.1398010253906	-859.4660034179688	106.9737701416016	-460.9463195800781	-814.5841064453125	110.974235534668	-556.3723754882812	-881.378173828125	261.9239807128906	-516.3563842773438	-570.86083984375	430.5523681640625	-49.23638916015625	-637.8259887695312	683.2222900390625	1.440562009811401	-750.2011108398438	85.98078155517578	-237.8814086914062	-588.8299560546875	294.1515197753906	-91.64249420166016	-588.0895385742188	42.42599487304688	-138.3440246582031	-602.663818359375	49.51115417480469	-210.7969055175781	-681.9185180664062	52.15247344970703	-154.1398468017578	-759.6461791992188	97.72802734375	-309.3052978515625	
147	1.46	-663.4400024414062	918.6165161132812	-165.7427062988281	-594.7274780273438	905.9855346679688	-268.0382995605469	-602.9618530273438	990.9598999023438	-224.8983764648438	-398.8302307128906	1082.90087890625	-63.46421432495117	-583.9661254882812	1096.216430664062	-224.4173583984375	-500.0042724609375	1304.0224609375	-156.7560577392578	-405.8739929199219	1184.525756835938	-69.3687744140625	-617.271484375	1201.0478515625	-150.1266174316406	-467.9491882324219	1255.271606445312	-245.5160369873047	-338.9494323730469	1273.475830078125	-224.9562225341797	-330.6752014160156	1156.500366210938	-301.7098693847656	-358.0972900390625	975.532470703125	-352.7646789550781	-455.8259887695312	974.759521484375	-380.7332763671875	-319.88623046875	858.347412109375	-207.9422760009766	-337.7073364257812	780.4656982421875	-257.3962097167969	-342.2616882324219	914.6524658203125	-320.25341796875	-289.2830810546875	751.9366455078125	-120.7639465332031	-301.9712524414062	753.39892578125	-218.9769287109375	-274.8556518554688	802.6114501953125	-185.3062438964844	-562.1112670898438	1277.774658203125	-9.469308853149414	-628.5595092773438	1222.68115234375	7.953660011291504	-730.4542846679688	991.0947875976562	0.9203804135322571	-751.1389770507812	965.8729248046875	-57.34973907470703	-579.0764770507812	854.2595825195312	83.09211730957031	-657.764404296875	811.7372436523438	96.33335113525391	-725.038818359375	943.6038208007812	19.72363662719727	-544.1211547851562	701.2583618164062	123.2153625488281	-555.734375	771.3899536132812	135.5376892089844	-624.5306396484375	752.128173828125	127.6603317260742	-534.1215209960938	1426.555053710938	-61.1647834777832	-368.5460815429688	1509.959716796875	-136.0128631591797	-432.4488220214844	1512.392211914062	-25.98004531860352	-465.6610107421875	1415.348266601562	-205.1382446289062	-451.9092712402344	799.7555541992188	-319.4172973632812	-662.333251953125	815.1661987304688	-3.185271739959717	-540.4856567382812	839.595947265625	-8.93098258972168	-406.5500183105469	822.3289184570312	-208.1133422851562	-476.8529968261719	376.0967407226562	-292.1076049804688	-453.70458984375	534.2723388671875	-292.3153076171875	-807.135498046875	226.9256896972656	-542.9389038085938	-574.0245361328125	309.1066284179688	-375.5407409667969	-800.713623046875	43.06678771972656	-464.2316284179688	-832.2708740234375	112.6438217163086	-446.77783203125	-786.5535278320312	118.78857421875	-541.46337890625	-852.0977172851562	269.4132995605469	-499.0348815917969	-566.0657348632812	428.0635375976562	-45.51261138916016	-629.8040771484375	681.3333740234375	7.779465198516846	-749.4788208007812	86.89453887939453	-237.8731994628906	-584.9542846679688	291.8512573242188	-90.21352386474609	-587.9410400390625	42.40578079223633	-138.2888641357422	-602.1863403320312	49.53188323974609	-210.8700561523438	-681.3828125	52.27674865722656	-154.1648712158203	-758.962158203125	99.05261993408203	-309.3049011230469	
148	1.47	-653.3797607421875	917.022216796875	-159.4679565429688	-584.4135131835938	903.121337890625	-261.5282592773438	-593.1689453125	989.4400634765625	-216.4352569580078	-386.8428649902344	1081.4130859375	-55.42189788818359	-574.4746704101562	1094.713500976562	-212.7949371337891	-489.5173950195312	1303.11376953125	-145.1296844482422	-393.8824768066406	1182.895751953125	-60.91269302368164	-606.483154296875	1199.37548828125	-135.4874420166016	-459.9978332519531	1254.686889648438	-234.9346313476562	-330.5038757324219	1272.341674804688	-217.8006744384766	-325.7397766113281	1156.577392578125	-296.5150756835938	-356.7076110839844	976.5026245117188	-353.2283020019531	-455.7004699707031	978.6575317382812	-375.790771484375	-312.6121520996094	850.9767456054688	-218.7512054443359	-335.7923583984375	776.3648071289062	-270.9298400878906	-340.3147583007812	913.5176391601562	-325.0394287109375	-277.5982360839844	739.4443969726562	-141.2026519775391	-297.4069213867188	746.8330078125	-237.663818359375	-267.173828125	793.5288696289062	-203.33056640625	-548.65576171875	1275.898803710938	3.663256406784058	-614.1143188476562	1219.115112304688	23.46666145324707	-707.4711303710938	983.2994384765625	25.97860717773438	-731.5912475585938	957.052734375	-30.35025024414062	-545.7630615234375	854.339599609375	97.69913482666016	-621.575439453125	809.1668701171875	117.5849533081055	-698.9478149414062	936.36572265625	44.54493713378906	-502.3008422851562	703.6557006835938	138.6661682128906	-515.3787231445312	773.6213989257812	149.4385681152344	-583.8065185546875	751.7820434570312	147.2120208740234	-521.4412841796875	1425.10986328125	-49.76298141479492	-356.2919616699219	1508.828125	-125.2954025268555	-419.70361328125	1511.091430664062	-14.99545669555664	-453.5411682128906	1414.073364257812	-194.0655364990234	-439.84912109375	797.721435546875	-310.2529907226562	-653.5576782226562	813.8888549804688	3.653570652008057	-531.0508422851562	839.125732421875	0.1010503768920898	-396.1188659667969	822.076904296875	-198.9951782226562	-446.5687561035156	375.5431518554688	-271.4574890136719	-432.1440124511719	533.8228759765625	-277.4615783691406	-776.5859985351562	233.5848388671875	-524.5416259765625	-542.9593505859375	310.386474609375	-354.9650268554688	-770.48291015625	47.07390594482422	-448.6937561035156	-802.1726684570312	117.4410247802734	-430.394775390625	-755.5809936523438	125.597412109375	-524.3904418945312	-821.80322265625	275.1985778808594	-480.4565734863281	-562.002197265625	425.6784362792969	-41.83262252807617	-621.9931640625	679.6004638671875	13.99384784698486	-748.8178100585938	87.80177307128906	-237.7849884033203	-581.827392578125	289.78759765625	-88.72905731201172	-587.8029174804688	42.38337707519531	-138.2112731933594	-601.7733154296875	49.59859085083008	-210.8684234619141	-680.913818359375	52.36728668212891	-154.1264343261719	-758.3267211914062	100.4628067016602	-309.2032165527344	
